<?xml version="1.0" encoding="UTF-8"?>
<svg enable-background="new 0 0 1000 1000" version="1.1" viewBox="0 0 1074.8 1022" xml:space="preserve" xmlns="http://www.w3.org/2000/svg" xmlns:cc="http://creativecommons.org/ns#" xmlns:dc="http://purl.org/dc/elements/1.1/" xmlns:rdf="http://www.w3.org/1999/02/22-rdf-syntax-ns#"><metadata> Svg Vector Icons : http://www.onlinewebfonts.com/icon <rdf:RDF><cc:Work rdf:about=""><dc:format>image/svg+xml</dc:format><dc:type rdf:resource="http://purl.org/dc/dcmitype/StillImage"/><dc:title/></cc:Work></rdf:RDF></metadata><g transform="rotate(45 359.5 515.99)" stroke="#fff" stroke-linecap="square" stroke-width="75" style="paint-order:markers stroke fill"><g transform="matrix(.1 0 0 -.1 0 511)" stroke="#fff" stroke-linecap="square" stroke-width="750" style="paint-order:markers stroke fill"><path d="m4844.2 4963.4c-112.8-51.5-198.7-157-220.8-269.8-19.6-88.3-31.9-90.8-615.7-112.8-1020.5-36.8-2541.4-228.1-2745-345.9-171.7-98.1-181.5-142.3-181.5-794.8 0-640.3 12.3-694.2 169.3-797.2 95.7-63.8 399.9-120.2 1081.8-206.1 601-76 1842.3-174.2 2215.1-174.2h66.2v-1302.6l785 407.2v890.5l338.5 17.2c785 36.8 1631.3 115.3 2274 208.5 686.9 98.1 755.5 122.7 856.1 294.4 49.1 80.9 51.5 125.1 51.5 662.3 0 500.4-4.9 586.3-41.7 655-68.7 125.1-169.2 176.6-429.3 228.1-549.5 105.5-1744.1 230.6-2450.6 257.6-576.5 22.1-588.7 24.5-608.4 112.8-31.9 161.9-218.3 316.4-382.7 316.4-34.2 0-105.4-22.1-161.8-46.6z" style="paint-order:markers stroke fill"/><path d="m4839.3 653.3c-468.5-237.9-870.8-451.4-897.8-473.4-73.6-63.8-112.8-164.3-112.8-291.9 0-191.3 63.8-262.5 380.2-424.4l267.4-139.8 223.2 110.4c120.2 61.3 314 161.9 426.9 223.2l206 110.4-115.3 58.9c-61.3 31.9-112.8 61.3-112.8 68.7 0 4.9 208.5 115.3 463.6 245.3 485.7 242.9 547 291.9 591.2 456.3 63.8 237.9-137.4 488.2-390 488.2-54-0.1-346-135-929.8-431.9z" style="paint-order:markers stroke fill"/><path d="m4839.3-911.7c-1005.8-502.9-1037.7-527.4-1005.8-809.5 19.6-169.2 73.6-223.2 377.8-375.3l279.6-142.3 429.3 220.8 426.8 220.8-127.6 63.8-125.1 63.8 468.5 237.9c490.6 245.3 551.9 294.4 596.1 458.7 63.8 235.5-137.4 488.2-387.6 488.2-48.9-0.1-370.2-147.3-932-426.9z" style="paint-order:markers stroke fill"/><path d="m4839.3-2481.7c-1005.8-502.9-1037.7-527.4-1005.8-809.5 22.1-188.9 58.9-218.3 637.8-507.8l534.8-267.4v-723.6l245.3 368c318.9 475.9 350.8 591.2 235.5 834-63.8 134.9-122.7 196.2-282.1 289.5l-107.9 61.3 468.5 235.5c488.2 245.3 549.5 294.4 593.6 458.7 63.8 235.5-137.4 488.2-387.6 488.2-49 0-370.3-147.2-932.1-426.9z" style="paint-order:markers stroke fill"/></g></g></svg>
